<?xml version="1.0" encoding="UTF-8"?>
<svg id="Ebene_1" data-name="Ebene 1" xmlns="http://www.w3.org/2000/svg" viewBox="0 0 40 40">
  <defs>
    <style>
      .cls-1 {
        fill: #ff2800;
      }
    </style>
  </defs>
  <path class="cls-1" d="M20,40c-2.77,0-5.37-.52-7.8-1.58-2.43-1.05-4.55-2.48-6.35-4.28-1.8-1.8-3.22-3.92-4.28-6.35-1.05-2.43-1.58-5.03-1.58-7.8s.53-5.37,1.57-7.8c1.05-2.43,2.48-4.55,4.28-6.35s3.92-3.22,6.35-4.28c2.43-1.05,5.03-1.58,7.8-1.58s5.37,.53,7.8,1.57c2.43,1.05,4.55,2.48,6.35,4.28,1.8,1.8,3.23,3.92,4.28,6.35,1.05,2.43,1.58,5.03,1.58,7.8v2.65c0,1.87-.66,3.44-1.97,4.73-1.32,1.28-2.92,1.92-4.83,1.92-1.2,0-2.33-.29-3.4-.88-1.07-.58-1.88-1.41-2.45-2.48-.87,1.13-1.95,1.97-3.25,2.52-1.3,.55-2.67,.83-4.1,.83-2.6,0-4.81-.9-6.62-2.7-1.82-1.8-2.73-4-2.73-6.6,0-2.6,.91-4.82,2.73-6.65,1.82-1.83,4.02-2.75,6.62-2.75,2.6,0,4.81,.92,6.62,2.75,1.82,1.83,2.72,4.05,2.72,6.65v2.65c0,1.03,.38,1.9,1.12,2.6s1.66,1.05,2.73,1.05c1.03,0,1.92-.35,2.67-1.05s1.12-1.57,1.12-2.6v-2.65c0-4.73-1.65-8.75-4.95-12.05-3.3-3.3-7.32-4.95-12.05-4.95s-8.75,1.65-12.05,4.95c-3.3,3.3-4.95,7.32-4.95,12.05s1.65,8.75,4.95,12.05c3.3,3.3,7.32,4.95,12.05,4.95h10.7v3h-10.7Zm0-13.7c1.77,0,3.27-.61,4.5-1.83s1.85-2.71,1.85-4.47-.62-3.32-1.85-4.55c-1.23-1.23-2.73-1.85-4.5-1.85s-3.27,.62-4.5,1.85c-1.23,1.23-1.85,2.75-1.85,4.55s.62,3.26,1.85,4.48c1.23,1.22,2.73,1.82,4.5,1.82Z"/>
</svg>