<?xml version="1.0" encoding="utf-8"?>
<!-- Generator: Adobe Illustrator 27.0.1, SVG Export Plug-In . SVG Version: 6.00 Build 0)  -->
<svg version="1.1" id="Ebene_1" xmlns="http://www.w3.org/2000/svg" xmlns:xlink="http://www.w3.org/1999/xlink" x="0px" y="0px"
	 viewBox="0 0 40 34" style="enable-background:new 0 0 40 34;" xml:space="preserve">
<style type="text/css">
	.st0{fill:#FF2800;}
</style>
<path class="st0" d="M8.4,31.9c-1.4,0-2.6-0.5-3.6-1.5c-1-1-1.5-2.2-1.5-3.6v-12c0-1.4,0.5-2.6,1.5-3.6S7,9.6,8.4,9.6
	c0.8,0,1.5,0.2,2.1,0.5c0.6,0.3,1.2,0.7,1.7,1.2h1.3V2.8h17.1v8.6h2.6c1.2,0,2.2,0.4,3,1.2c0.8,0.8,1.2,1.8,1.2,3v14.5H12.3
	c-0.5,0.5-1.1,0.9-1.7,1.2C9.9,31.7,9.2,31.9,8.4,31.9z M8.4,29.3c0.7,0,1.4-0.2,1.8-0.8c0.5-0.5,0.7-1.1,0.7-1.8v-12
	c0-0.7-0.2-1.4-0.7-1.8c-0.5-0.5-1.1-0.7-1.8-0.7c-0.7,0-1.3,0.2-1.8,0.7S5.9,14,5.9,14.8v12c0,0.7,0.2,1.3,0.8,1.8
	C7.1,29,7.7,29.3,8.4,29.3z M16.1,11.3h12v-6h-12V11.3z M13.6,27.6H35v-12c0-0.5-0.2-0.9-0.5-1.2c-0.3-0.3-0.7-0.5-1.2-0.5H13.6
	V27.6z M25.6,19.9c0.5,0,0.9-0.2,1.2-0.5c0.3-0.3,0.5-0.7,0.5-1.2c0-0.5-0.2-0.9-0.5-1.2c-0.3-0.3-0.7-0.5-1.2-0.5
	c-0.5,0-0.9,0.2-1.2,0.5c-0.3,0.3-0.5,0.7-0.5,1.2c0,0.5,0.2,0.9,0.5,1.2C24.7,19.7,25.1,19.9,25.6,19.9z M30.7,19.9
	c0.5,0,0.9-0.2,1.2-0.5c0.3-0.3,0.5-0.7,0.5-1.2c0-0.5-0.2-0.9-0.5-1.2c-0.3-0.3-0.7-0.5-1.2-0.5c-0.5,0-0.9,0.2-1.2,0.5
	c-0.3,0.3-0.5,0.7-0.5,1.2c0,0.5,0.2,0.9,0.5,1.2C29.8,19.7,30.2,19.9,30.7,19.9z M25.6,25c0.5,0,0.9-0.2,1.2-0.5
	c0.3-0.3,0.5-0.7,0.5-1.2c0-0.5-0.2-0.9-0.5-1.2c-0.3-0.3-0.7-0.5-1.2-0.5c-0.5,0-0.9,0.2-1.2,0.5c-0.3,0.3-0.5,0.7-0.5,1.2
	c0,0.5,0.2,0.9,0.5,1.2C24.7,24.9,25.1,25,25.6,25z M30.7,25c0.5,0,0.9-0.2,1.2-0.5c0.3-0.3,0.5-0.7,0.5-1.2c0-0.5-0.2-0.9-0.5-1.2
	c-0.3-0.3-0.7-0.5-1.2-0.5c-0.5,0-0.9,0.2-1.2,0.5c-0.3,0.3-0.5,0.7-0.5,1.2c0,0.5,0.2,0.9,0.5,1.2C29.8,24.9,30.2,25,30.7,25z
	 M16.1,25h6v-8.6h-6V25z M13.6,27.6L13.6,27.6z"/>
</svg>
