<?xml version="1.0" encoding="UTF-8"?>
<svg id="Ebene_1" data-name="Ebene 1" xmlns="http://www.w3.org/2000/svg" viewBox="0 0 36 36">
  <defs>
    <style>
      .cls-1 {
        fill: #ff2800;
      }
    </style>
  </defs>
  <path class="cls-1" d="M33.75,36c-4.07,0-8.11-1-12.12-3s-7.63-4.6-10.83-7.8c-3.2-3.2-5.8-6.81-7.8-10.83C1,10.36,0,6.32,0,2.25,0,1.62,.22,1.08,.65,.65s.97-.65,1.6-.65h7c.47,0,.88,.16,1.23,.47,.35,.32,.58,.74,.67,1.28l1.35,6.3c.07,.47,.06,.89-.02,1.27-.08,.38-.26,.71-.52,.97l-5,5.05c1.87,3.1,3.96,5.8,6.27,8.1,2.32,2.3,4.94,4.25,7.88,5.85l4.75-4.9c.33-.37,.72-.62,1.15-.77s.87-.18,1.3-.08l5.95,1.3c.5,.1,.92,.35,1.25,.75,.33,.4,.5,.87,.5,1.4v6.75c0,.63-.22,1.17-.65,1.6-.43,.43-.97,.65-1.6,.65ZM5.45,12.6l4.05-4.1-1.15-5.5H3c0,1.3,.2,2.72,.6,4.27s1.02,3.32,1.85,5.33ZM23.9,30.75c1.37,.63,2.85,1.15,4.45,1.55,1.6,.4,3.15,.63,4.65,.7v-5.35l-5.15-1.05-3.95,4.15Z"/>
</svg>