<?xml version="1.0" encoding="utf-8"?>
<!-- Generator: Adobe Illustrator 27.1.0, SVG Export Plug-In . SVG Version: 6.00 Build 0)  -->
<svg version="1.1" id="Ebene_1" xmlns="http://www.w3.org/2000/svg" xmlns:xlink="http://www.w3.org/1999/xlink" x="0px" y="0px"
	 viewBox="0 0 600 200" style="enable-background:new 0 0 600 200;" xml:space="preserve">
<style type="text/css">
	.st0{fill:#FFFFFF;}
	.st1{fill:#FF2800;}
	.st2{fill:#FFF9FB;}
</style>
<g>
	<path class="st0" d="M112.89,95.75l6.53-37.22h55.63c7.52,0,12.67-4.75,12.67-11.48c0-5.54-3.86-8.41-10.39-8.41h-53.95l8.91-9.11
		h46.23c12.47,0,19.9,5.35,19.9,14.85c0,10.1-7.52,15.84-13.26,17.32c4.85,1.29,9.21,5.64,9.21,12.97
		c0,10.69-6.73,21.08-27.62,21.08H112.89z M128.83,66.45l-3.56,20.29h43.16c10.59,0,15.24-5.54,15.24-11.88
		c0-4.95-3.17-8.41-9.8-8.41H128.83z"/>
	<path class="st0" d="M200.89,95.75l11.78-66.22h10.69l-11.78,66.22H200.89z"/>
	<path class="st0" d="M284.43,95.75l-44.25-31.77l-5.64,31.77h-10.69l11.68-66.22h10.79l-5.15,29l50.98-29h17.03l-58.9,31.97
		l50.09,34.25H284.43z"/>
	<path class="st0" d="M306.8,95.75l11.68-66.22h70.38l-8.61,9.11h-52.56l-3.56,19.9h56.42l-7.52,7.92h-50.28l-3.56,20.29h59.98
		l-8.61,9.01H306.8z"/>
	<path class="st0" d="M80.23,179.45l-19.8-21.88H22.32l-3.76,21.88H7.87l5.35-30.49h47.41c13.46,0,26.03-4.06,26.03-15.14
		c0-8.81-8.71-11.48-21.18-11.48H17.77l8.61-9.11h44.54c14.06,0,27.02,5.15,27.02,18.81c0,13.66-10.69,22.17-26.03,23.56
		l22.87,23.86H80.23z"/>
	<path class="st0" d="M101.91,179.45l11.78-66.22h10.69l-11.78,66.22H101.91z"/>
	<path class="st0" d="M124.87,179.45l7.23-41.28h10.79l-5.64,32.27h30.39c16.83,0,31.08-12.08,31.08-27.71
		c0-11.98-9.01-20.39-22.57-20.39h-41.18l8.51-9.11h34.25c19.2,0,31.77,11.28,31.77,27.71c0,21.48-19.8,38.5-43.45,38.5H124.87z"/>
	<path class="st0" d="M212.97,179.45l11.68-66.22h70.38l-8.61,9.11h-52.56l-3.56,19.9h56.42l-7.52,7.92H228.9l-3.56,20.29h59.98
		l-8.61,9.01H212.97z"/>
	<path class="st0" d="M362.73,179.45l-19.8-21.88h-38.11l-3.76,21.88h-10.69l5.34-30.49h47.41c13.46,0,26.03-4.06,26.03-15.14
		c0-8.81-8.71-11.48-21.18-11.48h-47.71l8.61-9.11h44.54c14.06,0,27.02,5.15,27.02,18.81c0,13.66-10.69,22.17-26.03,23.56
		l22.87,23.86H362.73z"/>
</g>
<polygon class="st1" points="565.89,179.45 388.86,179.45 415.1,29.53 592.13,29.53 "/>
<g>
	<path class="st2" d="M423.54,123.36l6.09-34.5h3.04L427,120.78h29.81l-2.42,2.58H423.54z"/>
	<path class="st2" d="M459.8,123.36l6.08-34.5h3.04l-6.14,34.5H459.8z"/>
	<path class="st2" d="M517.82,88.86h3.61l-28.37,33.68c-0.52,0.62-1.24,1.19-2.22,1.19c-0.93,0-1.55-0.52-1.86-1.19l-16.35-33.68
		h3.56l15.01,31.46L517.82,88.86z"/>
	<path class="st2" d="M518.86,123.36l6.09-34.5h35.02l-2.53,2.63h-29.91l-2.32,13.25h30.48l-2.17,2.32h-28.73l-2.42,13.72h32.18
		l-2.42,2.58H518.86z"/>
</g>
</svg>
